<svg width="259" height="53" viewBox="0 0 259 53" fill="none" xmlns="http://www.w3.org/2000/svg">
<path d="M49.1357 53H40.0264V18.4951H33.125V53H0V0H49.1357V53Z" fill="#B06E48"/>
<g clip-path="url(#clip0_678_9672)">
<path d="M258.391 17.5217V19.5691H252.931V33.8396H250.883V19.5691H245.424V17.5217H258.391Z" fill="black"/>
<path d="M90.6731 17.4603H76V19.5077H90.6731V17.4603Z" fill="black"/>
<path d="M90.6731 24.285H76V26.3324H90.6731V24.285Z" fill="black"/>
<path d="M90.6731 31.7922H76V33.8396H90.6731V31.7922Z" fill="black"/>
<path d="M100.398 25.6499C100.398 20.9385 104.218 17.119 108.929 17.119C111.585 17.119 113.958 18.3338 115.521 20.2342L113.94 21.5346C112.749 20.0871 110.947 19.1664 108.929 19.1664C105.349 19.1664 102.446 22.069 102.446 25.6499C102.446 29.2305 105.349 32.1334 108.929 32.1334C110.947 32.1334 112.749 31.2127 113.94 29.7649L115.521 31.0657C113.958 32.966 111.585 34.1808 108.929 34.1808C104.218 34.1808 100.398 30.3614 100.398 25.6499Z" fill="black"/>
<path d="M140.664 25.6499C140.664 24.0864 140.112 22.6545 139.191 21.5346C138 20.0871 136.198 19.1664 134.181 19.1664C130.6 19.1664 127.697 22.069 127.697 25.6499C127.697 29.2305 130.6 32.1334 134.181 32.1334C136.198 32.1334 138 31.2127 139.191 29.7649C140.112 28.6453 140.664 27.2135 140.664 25.6499ZM142.712 25.6499C142.712 27.7048 141.984 29.5929 140.772 31.0657C139.209 32.966 136.837 34.1808 134.181 34.1808C129.469 34.1808 125.65 30.3614 125.65 25.6499C125.65 20.9385 129.469 17.119 134.181 17.119C136.837 17.119 139.209 18.3338 140.772 20.2342C141.984 21.7069 142.712 23.5946 142.712 25.6499Z" fill="black"/>
<path fill-rule="evenodd" clip-rule="evenodd" d="M154.802 28.3672C154.848 29.2851 155.043 30.0304 155.386 30.603C156.04 31.6751 157.193 32.2112 158.844 32.2112C159.584 32.2112 160.258 32.0938 160.865 31.8587C162.041 31.4035 162.629 30.5883 162.629 29.4138C162.629 28.5323 162.381 27.9045 161.886 27.5301C161.384 27.163 160.598 26.8436 159.528 26.5716L157.556 26.0761C156.268 25.753 155.357 25.3967 154.822 25.0077C153.897 24.3321 153.435 23.3224 153.435 21.9786C153.435 20.5246 153.887 19.3316 154.792 18.399C155.697 17.4664 156.978 16.9999 158.636 16.9999C160.162 16.9999 161.458 17.4094 162.525 18.228C163.591 19.047 164.125 20.3557 164.125 22.155H162.272C162.173 21.2882 161.962 20.6239 161.638 20.1611C161.037 19.3166 160.016 18.8945 158.577 18.8945C157.414 18.8945 156.579 19.1661 156.07 19.7094C155.561 20.2529 155.307 20.8846 155.307 21.6042C155.307 22.3973 155.604 22.9774 156.199 23.3442C156.589 23.5793 157.47 23.8731 158.844 24.2256L160.885 24.7433C161.869 24.993 162.629 25.3343 163.164 25.7676C164.088 26.5242 164.551 27.6216 164.551 29.0609C164.551 30.8527 163.964 32.1341 162.792 32.9053C161.62 33.6761 160.258 34.0617 158.705 34.0617C156.896 34.0617 155.479 33.5478 154.455 32.5197C153.431 31.499 152.93 30.1146 152.949 28.3672H154.802Z" fill="black"/>
<path d="M226.826 33.7948V17.549H234.89L234.935 17.5527C240.697 18.0598 240.763 26.391 235.134 27.0783L239.909 33.7948H237.393L232.619 27.1036H228.873V33.7948H226.826ZM202.1 33.7948L204.525 28.4675L209.53 17.4831H211.023L216.024 28.4613L218.589 33.7948H216.317L214.452 29.9153H206.116L204.35 33.7948H202.1ZM176.153 33.701L176.153 17.4831H178.188L184.52 27.3482L190.954 17.4831H193.214V33.701H191.167V20.9036L184.506 31.1172L178.2 21.2913V33.701H176.153ZM228.873 25.0561H234.792C238.082 24.7313 238.082 19.9212 234.792 19.5964H228.873V25.0561ZM207.048 27.8679H213.504L210.276 20.7828L207.048 27.8679Z" fill="black"/>
</g>
<path fill-rule="evenodd" clip-rule="evenodd" d="M134 49.3012H136.274V49.6834H134.412V50.6303H136.133V50.9911H134.412V52.0484H136.305V52.4198H134V49.3012Z" fill="black"/>
<path fill-rule="evenodd" clip-rule="evenodd" d="M137.828 49.3012H138.327L139.902 51.8275V49.3012H140.303V52.4198H139.83L138.231 49.8957V52.4198H137.828V49.3012Z" fill="black"/>
<path fill-rule="evenodd" clip-rule="evenodd" d="M143.843 49.2206C144.136 49.2206 144.389 49.2773 144.603 49.3904C144.913 49.5532 145.103 49.8384 145.172 50.246H144.754C144.703 50.0181 144.597 49.8522 144.438 49.7482C144.278 49.6442 144.076 49.5921 143.832 49.5921C143.544 49.5921 143.301 49.7003 143.103 49.9168C142.906 50.1335 142.807 50.4561 142.807 50.885C142.807 51.2558 142.888 51.5576 143.051 51.7904C143.214 52.0231 143.479 52.1395 143.847 52.1395C144.129 52.1395 144.362 52.0578 144.547 51.8944C144.732 51.731 144.826 51.4666 144.83 51.1015H143.854V50.7512H145.223V52.4198H144.951L144.849 52.0186C144.706 52.1757 144.58 52.2847 144.469 52.3456C144.284 52.4503 144.048 52.5027 143.762 52.5027C143.393 52.5027 143.075 52.383 142.809 52.1439C142.519 51.8438 142.374 51.4319 142.374 50.9083C142.374 50.3861 142.515 49.9707 142.799 49.6621C143.067 49.3678 143.416 49.2206 143.843 49.2206Z" fill="black"/>
<path d="M147.586 49.3012H147.159V52.4198H147.586V49.3012Z" fill="black"/>
<path fill-rule="evenodd" clip-rule="evenodd" d="M149.552 49.3012H150.051L151.626 51.8275V49.3012H152.027V52.4198H151.554L149.955 49.8957V52.4198H149.552V49.3012Z" fill="black"/>
<path fill-rule="evenodd" clip-rule="evenodd" d="M154.098 49.3012H156.371V49.6834H154.509V50.6303H156.231V50.9911H154.509V52.0484H156.403V52.4198H154.098V49.3012Z" fill="black"/>
<path fill-rule="evenodd" clip-rule="evenodd" d="M157.926 49.3012H160.199V49.6834H158.337V50.6303H160.059V50.9911H158.337V52.0484H160.231V52.4198H157.926V49.3012Z" fill="black"/>
<path fill-rule="evenodd" clip-rule="evenodd" d="M163.153 50.7301C163.351 50.7301 163.508 50.6903 163.623 50.6111C163.738 50.5318 163.796 50.3889 163.796 50.1823C163.796 49.9601 163.715 49.8086 163.554 49.728C163.468 49.6855 163.352 49.6644 163.208 49.6644H162.176V50.7301H163.153ZM161.754 49.3012H163.197C163.435 49.3012 163.631 49.3359 163.785 49.4052C164.078 49.5384 164.225 49.7838 164.225 50.1419C164.225 50.3288 164.186 50.4817 164.109 50.6005C164.032 50.7193 163.924 50.8149 163.785 50.8871C163.907 50.9366 163.999 51.0017 164.06 51.0825C164.122 51.163 164.156 51.2939 164.163 51.4751L164.178 51.8934C164.182 52.0122 164.192 52.1006 164.208 52.1587C164.233 52.2577 164.279 52.3215 164.344 52.3498V52.4198H163.826C163.812 52.393 163.8 52.3583 163.792 52.3158C163.783 52.2733 163.776 52.1913 163.771 52.0695L163.745 51.5495C163.735 51.3457 163.659 51.2091 163.518 51.1398C163.437 51.1015 163.311 51.0825 163.138 51.0825H162.176V52.4198H161.754V49.3012Z" fill="black"/>
<path fill-rule="evenodd" clip-rule="evenodd" d="M166.06 49.3012H168.334V49.6834H166.472V50.6303H168.194V50.9911H166.472V52.0484H168.366V52.4198H166.06V49.3012Z" fill="black"/>
<path fill-rule="evenodd" clip-rule="evenodd" d="M171.067 52.0589C171.21 52.0589 171.327 52.0441 171.419 52.0143C171.583 51.9592 171.718 51.853 171.822 51.696C171.906 51.57 171.966 51.4087 172.003 51.2119C172.024 51.0943 172.035 50.9854 172.035 50.885C172.035 50.4986 171.958 50.1986 171.804 49.9849C171.651 49.7711 171.404 49.6644 171.062 49.6644H170.313V52.0589H171.067ZM169.888 49.3012H171.152C171.58 49.3012 171.913 49.4534 172.149 49.7576C172.36 50.0322 172.466 50.384 172.466 50.8127C172.466 51.144 172.403 51.4433 172.279 51.7108C172.06 52.1835 171.682 52.4198 171.147 52.4198H169.888V49.3012Z" fill="black"/>
<path fill-rule="evenodd" clip-rule="evenodd" d="M177.046 49.3012L177.634 51.8382L178.339 49.3012H178.798L179.502 51.8382L180.09 49.3012H180.553L179.734 52.4198H179.29L178.57 49.8341L177.847 52.4198H177.403L176.588 49.3012H177.046Z" fill="black"/>
<path d="M182.756 49.3012H182.33V52.4198H182.756V49.3012Z" fill="black"/>
<path fill-rule="evenodd" clip-rule="evenodd" d="M186.774 49.3012V49.6728H185.724V52.4198H185.295V49.6728H184.244V49.3012H186.774Z" fill="black"/>
<path fill-rule="evenodd" clip-rule="evenodd" d="M188.551 49.3012H188.977V50.5899H190.599V49.3012H191.026V52.4198H190.599V50.9613H188.977V52.4198H188.551V49.3012Z" fill="black"/>
<path d="M193.284 49.3012H192.857V52.4198H193.284V49.3012Z" fill="black"/>
<path fill-rule="evenodd" clip-rule="evenodd" d="M195.286 49.3012H195.785L197.361 51.8275V49.3012H197.762V52.4198H197.288L195.69 49.8957V52.4198H195.286V49.3012Z" fill="black"/>
<path d="M200 51.9571H199.556V52.4199H200V51.9571Z" fill="black"/>
<path d="M174.195 43V43.2393H159.122V43H174.195Z" fill="black"/>
<defs>
<clipPath id="clip0_678_9672">
<rect width="182.466" height="19" fill="white" transform="translate(76 17)"/>
</clipPath>
</defs>
</svg>
